<svg xmlns="http://www.w3.org/2000/svg" viewBox="0 0 24 24" aria-hidden="true">
  <path fill="#111111" d="M12 10.2v3.9h5.5c-.2 1.2-1.4 3.6-5.5 3.6-3.3 0-6-2.7-6-6s2.7-6 6-6c1.9 0 3.2.8 3.9 1.5l2.6-2.5C16.8 3 14.6 2.1 12 2.1 6.8 2.1 2.6 6.3 2.6 11.5S6.8 20.9 12 20.9c6.9 0 9.2-4.8 9.2-7.3 0-.5 0-.9-.1-1.3H12z"/>
  <path fill="#111111" d="M2.6 7.1l3.2 2.4C6.7 7.3 9.1 5.7 12 5.7c1.9 0 3.2.8 3.9 1.5l2.6-2.5C16.8 3 14.6 2.1 12 2.1c-3.8 0-7.1 2.2-8.7 5z"/>
  <path fill="#111111" d="M12 20.9c2.5 0 4.7-.8 6.2-2.3l-2.9-2.4c-.8.6-1.9 1.1-3.3 1.1-3.3 0-6-2.7-6-6 0-.8.2-1.5.4-2.2L2.6 7.1c-.7 1.3-1.1 2.8-1.1 4.4 0 5.2 4.2 9.4 10.5 9.4z"/>
  <path fill="#111111" d="M21.2 11.5c0-.6-.1-1.1-.2-1.6H12v3.9h5.5c-.3 1.5-1.2 2.7-2.3 3.4l2.9 2.4c1.7-1.6 3.1-4 3.1-8.1z"/>
</svg>
